<?xml version="1.0" encoding="UTF-8" standalone="no"?>
<svg
   xmlns:dc="http://purl.org/dc/elements/1.1/"
   xmlns:cc="http://creativecommons.org/ns#"
   xmlns:rdf="http://www.w3.org/1999/02/22-rdf-syntax-ns#"
   xmlns:svg="http://www.w3.org/2000/svg"
   xmlns="http://www.w3.org/2000/svg"
   xmlns:sodipodi="http://sodipodi.sourceforge.net/DTD/sodipodi-0.dtd"
   xmlns:inkscape="http://www.inkscape.org/namespaces/inkscape"
   sodipodi:docname="Aruco_30-35_20mm.svg"
   inkscape:version="1.0 (4035a4fb49, 2020-05-01)"
   id="svg8"
   version="1.1"
   viewBox="0 0 210 297"
   height="297mm"
   width="210mm">
  <defs
     id="defs2">
    <rect
       id="rect792"
       height="71.37607"
       width="94.371708"
       y="-8.0634054"
       x="115.87412" />
  </defs>
  <sodipodi:namedview
     inkscape:window-maximized="0"
     inkscape:window-y="57"
     inkscape:window-x="378"
     inkscape:window-height="1198"
     inkscape:window-width="1375"
     showgrid="false"
     inkscape:document-rotation="0"
     inkscape:current-layer="layer1"
     inkscape:document-units="mm"
     inkscape:cy="357.88777"
     inkscape:cx="357.28611"
     inkscape:zoom="0.88594702"
     inkscape:pageshadow="2"
     inkscape:pageopacity="0.0"
     borderopacity="1.0"
     bordercolor="#666666"
     pagecolor="#ffffff"
     id="base" />
  <metadata
     id="metadata5">
    <rdf:RDF>
      <cc:Work
         rdf:about="">
        <dc:format>image/svg+xml</dc:format>
        <dc:type
           rdf:resource="http://purl.org/dc/dcmitype/StillImage" />
        <dc:title></dc:title>
      </cc:Work>
    </rdf:RDF>
  </metadata>
  <g
     id="layer1"
     inkscape:groupmode="layer"
     inkscape:label="Layer 1">
    <g
       transform="matrix(2.5000001,0,0,2.5000001,20,15)"
       id="g129"
       style="shape-rendering:crispEdges">
      <rect
         x="0"
         y="0"
         width="8"
         height="8"
         fill="#000000"
         id="rect10" />
      <rect
         width="1"
         height="1"
         x="1"
         y="1"
         fill="#ffffff"
         id="rect12" />
      <rect
         width="1"
         height="1"
         x="2"
         y="1"
         fill="#ffffff"
         id="rect14" />
      <rect
         width="1"
         height="1"
         x="3"
         y="1"
         fill="#ffffff"
         id="rect16" />
      <rect
         width="1"
         height="1"
         x="4"
         y="1"
         fill="#ffffff"
         id="rect18" />
      <rect
         width="1"
         height="1"
         x="5"
         y="1"
         fill="#ffffff"
         id="rect20" />
      <rect
         width="1"
         height="1"
         x="6"
         y="1"
         fill="#000000"
         id="rect22" />
      <rect
         width="1"
         height="1"
         x="1"
         y="2"
         fill="#ffffff"
         id="rect24" />
      <rect
         width="1"
         height="1"
         x="2"
         y="2"
         fill="#000000"
         id="rect26" />
      <rect
         width="1"
         height="1"
         x="3"
         y="2"
         fill="#000000"
         id="rect28" />
      <rect
         width="1"
         height="1"
         x="4"
         y="2"
         fill="#000000"
         id="rect30" />
      <rect
         width="1"
         height="1"
         x="5"
         y="2"
         fill="#ffffff"
         id="rect32" />
      <rect
         width="1"
         height="1"
         x="6"
         y="2"
         fill="#ffffff"
         id="rect34" />
      <rect
         width="1"
         height="1"
         x="1"
         y="3"
         fill="#000000"
         id="rect36" />
      <rect
         width="1"
         height="1"
         x="2"
         y="3"
         fill="#ffffff"
         id="rect38" />
      <rect
         width="1"
         height="1"
         x="3"
         y="3"
         fill="#ffffff"
         id="rect40" />
      <rect
         width="1"
         height="1"
         x="4"
         y="3"
         fill="#000000"
         id="rect42" />
      <rect
         width="1"
         height="1"
         x="5"
         y="3"
         fill="#000000"
         id="rect44" />
      <rect
         width="1"
         height="1"
         x="6"
         y="3"
         fill="#ffffff"
         id="rect46" />
      <rect
         width="1"
         height="1"
         x="1"
         y="4"
         fill="#ffffff"
         id="rect48" />
      <rect
         width="1"
         height="1"
         x="2"
         y="4"
         fill="#000000"
         id="rect50" />
      <rect
         width="1"
         height="1"
         x="3"
         y="4"
         fill="#000000"
         id="rect52" />
      <rect
         width="1"
         height="1"
         x="4"
         y="4"
         fill="#ffffff"
         id="rect54" />
      <rect
         width="1"
         height="1"
         x="5"
         y="4"
         fill="#000000"
         id="rect56" />
      <rect
         width="1"
         height="1"
         x="6"
         y="4"
         fill="#ffffff"
         id="rect58" />
      <rect
         width="1"
         height="1"
         x="1"
         y="5"
         fill="#000000"
         id="rect60" />
      <rect
         width="1"
         height="1"
         x="2"
         y="5"
         fill="#000000"
         id="rect62" />
      <rect
         width="1"
         height="1"
         x="3"
         y="5"
         fill="#ffffff"
         id="rect64" />
      <rect
         width="1"
         height="1"
         x="4"
         y="5"
         fill="#000000"
         id="rect66" />
      <rect
         width="1"
         height="1"
         x="5"
         y="5"
         fill="#ffffff"
         id="rect68" />
      <rect
         width="1"
         height="1"
         x="6"
         y="5"
         fill="#000000"
         id="rect70" />
      <rect
         width="1"
         height="1"
         x="1"
         y="6"
         fill="#ffffff"
         id="rect72" />
      <rect
         width="1"
         height="1"
         x="2"
         y="6"
         fill="#000000"
         id="rect74" />
      <rect
         width="1"
         height="1"
         x="3"
         y="6"
         fill="#ffffff"
         id="rect76" />
      <rect
         width="1"
         height="1"
         x="4"
         y="6"
         fill="#ffffff"
         id="rect78" />
      <rect
         width="1"
         height="1"
         x="5"
         y="6"
         fill="#ffffff"
         id="rect80" />
      <rect
         width="1"
         height="1"
         x="6"
         y="6"
         fill="#ffffff"
         id="rect82" />
    </g>
    <g
       transform="matrix(2.5000001,0,0,2.5000001,46.362282,15)"
       id="g250"
       style="shape-rendering:crispEdges">
      <rect
         x="0"
         y="0"
         width="8"
         height="8"
         fill="#000000"
         id="rect131" />
      <rect
         width="1"
         height="1"
         x="1"
         y="1"
         fill="#000000"
         id="rect133" />
      <rect
         width="1"
         height="1"
         x="2"
         y="1"
         fill="#000000"
         id="rect135" />
      <rect
         width="1"
         height="1"
         x="3"
         y="1"
         fill="#000000"
         id="rect137" />
      <rect
         width="1"
         height="1"
         x="4"
         y="1"
         fill="#000000"
         id="rect139" />
      <rect
         width="1"
         height="1"
         x="5"
         y="1"
         fill="#000000"
         id="rect141" />
      <rect
         width="1"
         height="1"
         x="6"
         y="1"
         fill="#ffffff"
         id="rect143" />
      <rect
         width="1"
         height="1"
         x="1"
         y="2"
         fill="#ffffff"
         id="rect145" />
      <rect
         width="1"
         height="1"
         x="2"
         y="2"
         fill="#000000"
         id="rect147" />
      <rect
         width="1"
         height="1"
         x="3"
         y="2"
         fill="#000000"
         id="rect149" />
      <rect
         width="1"
         height="1"
         x="4"
         y="2"
         fill="#ffffff"
         id="rect151" />
      <rect
         width="1"
         height="1"
         x="5"
         y="2"
         fill="#000000"
         id="rect153" />
      <rect
         width="1"
         height="1"
         x="6"
         y="2"
         fill="#ffffff"
         id="rect155" />
      <rect
         width="1"
         height="1"
         x="1"
         y="3"
         fill="#ffffff"
         id="rect157" />
      <rect
         width="1"
         height="1"
         x="2"
         y="3"
         fill="#000000"
         id="rect159" />
      <rect
         width="1"
         height="1"
         x="3"
         y="3"
         fill="#ffffff"
         id="rect161" />
      <rect
         width="1"
         height="1"
         x="4"
         y="3"
         fill="#ffffff"
         id="rect163" />
      <rect
         width="1"
         height="1"
         x="5"
         y="3"
         fill="#ffffff"
         id="rect165" />
      <rect
         width="1"
         height="1"
         x="6"
         y="3"
         fill="#ffffff"
         id="rect167" />
      <rect
         width="1"
         height="1"
         x="1"
         y="4"
         fill="#ffffff"
         id="rect169" />
      <rect
         width="1"
         height="1"
         x="2"
         y="4"
         fill="#ffffff"
         id="rect171" />
      <rect
         width="1"
         height="1"
         x="3"
         y="4"
         fill="#ffffff"
         id="rect173" />
      <rect
         width="1"
         height="1"
         x="4"
         y="4"
         fill="#ffffff"
         id="rect175" />
      <rect
         width="1"
         height="1"
         x="5"
         y="4"
         fill="#ffffff"
         id="rect177" />
      <rect
         width="1"
         height="1"
         x="6"
         y="4"
         fill="#ffffff"
         id="rect179" />
      <rect
         width="1"
         height="1"
         x="1"
         y="5"
         fill="#000000"
         id="rect181" />
      <rect
         width="1"
         height="1"
         x="2"
         y="5"
         fill="#ffffff"
         id="rect183" />
      <rect
         width="1"
         height="1"
         x="3"
         y="5"
         fill="#ffffff"
         id="rect185" />
      <rect
         width="1"
         height="1"
         x="4"
         y="5"
         fill="#ffffff"
         id="rect187" />
      <rect
         width="1"
         height="1"
         x="5"
         y="5"
         fill="#ffffff"
         id="rect189" />
      <rect
         width="1"
         height="1"
         x="6"
         y="5"
         fill="#000000"
         id="rect191" />
      <rect
         width="1"
         height="1"
         x="1"
         y="6"
         fill="#ffffff"
         id="rect193" />
      <rect
         width="1"
         height="1"
         x="2"
         y="6"
         fill="#ffffff"
         id="rect195" />
      <rect
         width="1"
         height="1"
         x="3"
         y="6"
         fill="#ffffff"
         id="rect197" />
      <rect
         width="1"
         height="1"
         x="4"
         y="6"
         fill="#ffffff"
         id="rect199" />
      <rect
         width="1"
         height="1"
         x="5"
         y="6"
         fill="#000000"
         id="rect201" />
      <rect
         width="1"
         height="1"
         x="6"
         y="6"
         fill="#ffffff"
         id="rect203" />
    </g>
    <g
       transform="matrix(2.5000001,0,0,2.5000001,72.724566,15)"
       id="g371"
       style="shape-rendering:crispEdges">
      <rect
         x="0"
         y="0"
         width="8"
         height="8"
         fill="#000000"
         id="rect252" />
      <rect
         width="1"
         height="1"
         x="1"
         y="1"
         fill="#000000"
         id="rect254" />
      <rect
         width="1"
         height="1"
         x="2"
         y="1"
         fill="#000000"
         id="rect256" />
      <rect
         width="1"
         height="1"
         x="3"
         y="1"
         fill="#000000"
         id="rect258" />
      <rect
         width="1"
         height="1"
         x="4"
         y="1"
         fill="#000000"
         id="rect260" />
      <rect
         width="1"
         height="1"
         x="5"
         y="1"
         fill="#000000"
         id="rect262" />
      <rect
         width="1"
         height="1"
         x="6"
         y="1"
         fill="#ffffff"
         id="rect264" />
      <rect
         width="1"
         height="1"
         x="1"
         y="2"
         fill="#000000"
         id="rect266" />
      <rect
         width="1"
         height="1"
         x="2"
         y="2"
         fill="#ffffff"
         id="rect268" />
      <rect
         width="1"
         height="1"
         x="3"
         y="2"
         fill="#000000"
         id="rect270" />
      <rect
         width="1"
         height="1"
         x="4"
         y="2"
         fill="#ffffff"
         id="rect272" />
      <rect
         width="1"
         height="1"
         x="5"
         y="2"
         fill="#000000"
         id="rect274" />
      <rect
         width="1"
         height="1"
         x="6"
         y="2"
         fill="#000000"
         id="rect276" />
      <rect
         width="1"
         height="1"
         x="1"
         y="3"
         fill="#000000"
         id="rect278" />
      <rect
         width="1"
         height="1"
         x="2"
         y="3"
         fill="#000000"
         id="rect280" />
      <rect
         width="1"
         height="1"
         x="3"
         y="3"
         fill="#000000"
         id="rect282" />
      <rect
         width="1"
         height="1"
         x="4"
         y="3"
         fill="#ffffff"
         id="rect284" />
      <rect
         width="1"
         height="1"
         x="5"
         y="3"
         fill="#ffffff"
         id="rect286" />
      <rect
         width="1"
         height="1"
         x="6"
         y="3"
         fill="#ffffff"
         id="rect288" />
      <rect
         width="1"
         height="1"
         x="1"
         y="4"
         fill="#000000"
         id="rect290" />
      <rect
         width="1"
         height="1"
         x="2"
         y="4"
         fill="#ffffff"
         id="rect292" />
      <rect
         width="1"
         height="1"
         x="3"
         y="4"
         fill="#000000"
         id="rect294" />
      <rect
         width="1"
         height="1"
         x="4"
         y="4"
         fill="#ffffff"
         id="rect296" />
      <rect
         width="1"
         height="1"
         x="5"
         y="4"
         fill="#ffffff"
         id="rect298" />
      <rect
         width="1"
         height="1"
         x="6"
         y="4"
         fill="#ffffff"
         id="rect300" />
      <rect
         width="1"
         height="1"
         x="1"
         y="5"
         fill="#000000"
         id="rect302" />
      <rect
         width="1"
         height="1"
         x="2"
         y="5"
         fill="#000000"
         id="rect304" />
      <rect
         width="1"
         height="1"
         x="3"
         y="5"
         fill="#ffffff"
         id="rect306" />
      <rect
         width="1"
         height="1"
         x="4"
         y="5"
         fill="#000000"
         id="rect308" />
      <rect
         width="1"
         height="1"
         x="5"
         y="5"
         fill="#ffffff"
         id="rect310" />
      <rect
         width="1"
         height="1"
         x="6"
         y="5"
         fill="#ffffff"
         id="rect312" />
      <rect
         width="1"
         height="1"
         x="1"
         y="6"
         fill="#000000"
         id="rect314" />
      <rect
         width="1"
         height="1"
         x="2"
         y="6"
         fill="#ffffff"
         id="rect316" />
      <rect
         width="1"
         height="1"
         x="3"
         y="6"
         fill="#000000"
         id="rect318" />
      <rect
         width="1"
         height="1"
         x="4"
         y="6"
         fill="#ffffff"
         id="rect320" />
      <rect
         width="1"
         height="1"
         x="5"
         y="6"
         fill="#ffffff"
         id="rect322" />
      <rect
         width="1"
         height="1"
         x="6"
         y="6"
         fill="#000000"
         id="rect324" />
    </g>
    <g
       transform="matrix(2.5000001,0,0,2.5000001,110,15)"
       id="g492"
       style="shape-rendering:crispEdges">
      <rect
         x="0"
         y="0"
         width="8"
         height="8"
         fill="#000000"
         id="rect373" />
      <rect
         width="1"
         height="1"
         x="1"
         y="1"
         fill="#000000"
         id="rect375" />
      <rect
         width="1"
         height="1"
         x="2"
         y="1"
         fill="#000000"
         id="rect377" />
      <rect
         width="1"
         height="1"
         x="3"
         y="1"
         fill="#000000"
         id="rect379" />
      <rect
         width="1"
         height="1"
         x="4"
         y="1"
         fill="#000000"
         id="rect381" />
      <rect
         width="1"
         height="1"
         x="5"
         y="1"
         fill="#ffffff"
         id="rect383" />
      <rect
         width="1"
         height="1"
         x="6"
         y="1"
         fill="#ffffff"
         id="rect385" />
      <rect
         width="1"
         height="1"
         x="1"
         y="2"
         fill="#000000"
         id="rect387" />
      <rect
         width="1"
         height="1"
         x="2"
         y="2"
         fill="#000000"
         id="rect389" />
      <rect
         width="1"
         height="1"
         x="3"
         y="2"
         fill="#ffffff"
         id="rect391" />
      <rect
         width="1"
         height="1"
         x="4"
         y="2"
         fill="#ffffff"
         id="rect393" />
      <rect
         width="1"
         height="1"
         x="5"
         y="2"
         fill="#ffffff"
         id="rect395" />
      <rect
         width="1"
         height="1"
         x="6"
         y="2"
         fill="#ffffff"
         id="rect397" />
      <rect
         width="1"
         height="1"
         x="1"
         y="3"
         fill="#000000"
         id="rect399" />
      <rect
         width="1"
         height="1"
         x="2"
         y="3"
         fill="#ffffff"
         id="rect401" />
      <rect
         width="1"
         height="1"
         x="3"
         y="3"
         fill="#ffffff"
         id="rect403" />
      <rect
         width="1"
         height="1"
         x="4"
         y="3"
         fill="#ffffff"
         id="rect405" />
      <rect
         width="1"
         height="1"
         x="5"
         y="3"
         fill="#000000"
         id="rect407" />
      <rect
         width="1"
         height="1"
         x="6"
         y="3"
         fill="#000000"
         id="rect409" />
      <rect
         width="1"
         height="1"
         x="1"
         y="4"
         fill="#ffffff"
         id="rect411" />
      <rect
         width="1"
         height="1"
         x="2"
         y="4"
         fill="#000000"
         id="rect413" />
      <rect
         width="1"
         height="1"
         x="3"
         y="4"
         fill="#000000"
         id="rect415" />
      <rect
         width="1"
         height="1"
         x="4"
         y="4"
         fill="#ffffff"
         id="rect417" />
      <rect
         width="1"
         height="1"
         x="5"
         y="4"
         fill="#000000"
         id="rect419" />
      <rect
         width="1"
         height="1"
         x="6"
         y="4"
         fill="#000000"
         id="rect421" />
      <rect
         width="1"
         height="1"
         x="1"
         y="5"
         fill="#000000"
         id="rect423" />
      <rect
         width="1"
         height="1"
         x="2"
         y="5"
         fill="#ffffff"
         id="rect425" />
      <rect
         width="1"
         height="1"
         x="3"
         y="5"
         fill="#ffffff"
         id="rect427" />
      <rect
         width="1"
         height="1"
         x="4"
         y="5"
         fill="#000000"
         id="rect429" />
      <rect
         width="1"
         height="1"
         x="5"
         y="5"
         fill="#ffffff"
         id="rect431" />
      <rect
         width="1"
         height="1"
         x="6"
         y="5"
         fill="#000000"
         id="rect433" />
      <rect
         width="1"
         height="1"
         x="1"
         y="6"
         fill="#ffffff"
         id="rect435" />
      <rect
         width="1"
         height="1"
         x="2"
         y="6"
         fill="#000000"
         id="rect437" />
      <rect
         width="1"
         height="1"
         x="3"
         y="6"
         fill="#000000"
         id="rect439" />
      <rect
         width="1"
         height="1"
         x="4"
         y="6"
         fill="#000000"
         id="rect441" />
      <rect
         width="1"
         height="1"
         x="5"
         y="6"
         fill="#ffffff"
         id="rect443" />
      <rect
         width="1"
         height="1"
         x="6"
         y="6"
         fill="#000000"
         id="rect445" />
    </g>
    <g
       transform="matrix(2.5000001,0,0,2.5000001,139.79351,15)"
       id="g613"
       style="shape-rendering:crispEdges">
      <rect
         x="0"
         y="0"
         width="8"
         height="8"
         fill="#000000"
         id="rect494" />
      <rect
         width="1"
         height="1"
         x="1"
         y="1"
         fill="#000000"
         id="rect496" />
      <rect
         width="1"
         height="1"
         x="2"
         y="1"
         fill="#000000"
         id="rect498" />
      <rect
         width="1"
         height="1"
         x="3"
         y="1"
         fill="#000000"
         id="rect500" />
      <rect
         width="1"
         height="1"
         x="4"
         y="1"
         fill="#ffffff"
         id="rect502" />
      <rect
         width="1"
         height="1"
         x="5"
         y="1"
         fill="#000000"
         id="rect504" />
      <rect
         width="1"
         height="1"
         x="6"
         y="1"
         fill="#000000"
         id="rect506" />
      <rect
         width="1"
         height="1"
         x="1"
         y="2"
         fill="#ffffff"
         id="rect508" />
      <rect
         width="1"
         height="1"
         x="2"
         y="2"
         fill="#ffffff"
         id="rect510" />
      <rect
         width="1"
         height="1"
         x="3"
         y="2"
         fill="#000000"
         id="rect512" />
      <rect
         width="1"
         height="1"
         x="4"
         y="2"
         fill="#000000"
         id="rect514" />
      <rect
         width="1"
         height="1"
         x="5"
         y="2"
         fill="#ffffff"
         id="rect516" />
      <rect
         width="1"
         height="1"
         x="6"
         y="2"
         fill="#ffffff"
         id="rect518" />
      <rect
         width="1"
         height="1"
         x="1"
         y="3"
         fill="#ffffff"
         id="rect520" />
      <rect
         width="1"
         height="1"
         x="2"
         y="3"
         fill="#000000"
         id="rect522" />
      <rect
         width="1"
         height="1"
         x="3"
         y="3"
         fill="#000000"
         id="rect524" />
      <rect
         width="1"
         height="1"
         x="4"
         y="3"
         fill="#000000"
         id="rect526" />
      <rect
         width="1"
         height="1"
         x="5"
         y="3"
         fill="#ffffff"
         id="rect528" />
      <rect
         width="1"
         height="1"
         x="6"
         y="3"
         fill="#000000"
         id="rect530" />
      <rect
         width="1"
         height="1"
         x="1"
         y="4"
         fill="#ffffff"
         id="rect532" />
      <rect
         width="1"
         height="1"
         x="2"
         y="4"
         fill="#000000"
         id="rect534" />
      <rect
         width="1"
         height="1"
         x="3"
         y="4"
         fill="#000000"
         id="rect536" />
      <rect
         width="1"
         height="1"
         x="4"
         y="4"
         fill="#000000"
         id="rect538" />
      <rect
         width="1"
         height="1"
         x="5"
         y="4"
         fill="#ffffff"
         id="rect540" />
      <rect
         width="1"
         height="1"
         x="6"
         y="4"
         fill="#ffffff"
         id="rect542" />
      <rect
         width="1"
         height="1"
         x="1"
         y="5"
         fill="#ffffff"
         id="rect544" />
      <rect
         width="1"
         height="1"
         x="2"
         y="5"
         fill="#000000"
         id="rect546" />
      <rect
         width="1"
         height="1"
         x="3"
         y="5"
         fill="#000000"
         id="rect548" />
      <rect
         width="1"
         height="1"
         x="4"
         y="5"
         fill="#ffffff"
         id="rect550" />
      <rect
         width="1"
         height="1"
         x="5"
         y="5"
         fill="#ffffff"
         id="rect552" />
      <rect
         width="1"
         height="1"
         x="6"
         y="5"
         fill="#ffffff"
         id="rect554" />
      <rect
         width="1"
         height="1"
         x="1"
         y="6"
         fill="#ffffff"
         id="rect556" />
      <rect
         width="1"
         height="1"
         x="2"
         y="6"
         fill="#000000"
         id="rect558" />
      <rect
         width="1"
         height="1"
         x="3"
         y="6"
         fill="#ffffff"
         id="rect560" />
      <rect
         width="1"
         height="1"
         x="4"
         y="6"
         fill="#000000"
         id="rect562" />
      <rect
         width="1"
         height="1"
         x="5"
         y="6"
         fill="#ffffff"
         id="rect564" />
      <rect
         width="1"
         height="1"
         x="6"
         y="6"
         fill="#ffffff"
         id="rect566" />
    </g>
    <g
       transform="matrix(2.5000001,0,0,2.5000001,169.58702,15)"
       id="g734"
       style="shape-rendering:crispEdges">
      <rect
         x="0"
         y="0"
         width="8"
         height="8"
         fill="#000000"
         id="rect615" />
      <rect
         width="1"
         height="1"
         x="1"
         y="1"
         fill="#000000"
         id="rect617" />
      <rect
         width="1"
         height="1"
         x="2"
         y="1"
         fill="#000000"
         id="rect619" />
      <rect
         width="1"
         height="1"
         x="3"
         y="1"
         fill="#000000"
         id="rect621" />
      <rect
         width="1"
         height="1"
         x="4"
         y="1"
         fill="#ffffff"
         id="rect623" />
      <rect
         width="1"
         height="1"
         x="5"
         y="1"
         fill="#000000"
         id="rect625" />
      <rect
         width="1"
         height="1"
         x="6"
         y="1"
         fill="#ffffff"
         id="rect627" />
      <rect
         width="1"
         height="1"
         x="1"
         y="2"
         fill="#000000"
         id="rect629" />
      <rect
         width="1"
         height="1"
         x="2"
         y="2"
         fill="#ffffff"
         id="rect631" />
      <rect
         width="1"
         height="1"
         x="3"
         y="2"
         fill="#ffffff"
         id="rect633" />
      <rect
         width="1"
         height="1"
         x="4"
         y="2"
         fill="#000000"
         id="rect635" />
      <rect
         width="1"
         height="1"
         x="5"
         y="2"
         fill="#ffffff"
         id="rect637" />
      <rect
         width="1"
         height="1"
         x="6"
         y="2"
         fill="#000000"
         id="rect639" />
      <rect
         width="1"
         height="1"
         x="1"
         y="3"
         fill="#ffffff"
         id="rect641" />
      <rect
         width="1"
         height="1"
         x="2"
         y="3"
         fill="#000000"
         id="rect643" />
      <rect
         width="1"
         height="1"
         x="3"
         y="3"
         fill="#000000"
         id="rect645" />
      <rect
         width="1"
         height="1"
         x="4"
         y="3"
         fill="#000000"
         id="rect647" />
      <rect
         width="1"
         height="1"
         x="5"
         y="3"
         fill="#ffffff"
         id="rect649" />
      <rect
         width="1"
         height="1"
         x="6"
         y="3"
         fill="#000000"
         id="rect651" />
      <rect
         width="1"
         height="1"
         x="1"
         y="4"
         fill="#000000"
         id="rect653" />
      <rect
         width="1"
         height="1"
         x="2"
         y="4"
         fill="#ffffff"
         id="rect655" />
      <rect
         width="1"
         height="1"
         x="3"
         y="4"
         fill="#000000"
         id="rect657" />
      <rect
         width="1"
         height="1"
         x="4"
         y="4"
         fill="#000000"
         id="rect659" />
      <rect
         width="1"
         height="1"
         x="5"
         y="4"
         fill="#ffffff"
         id="rect661" />
      <rect
         width="1"
         height="1"
         x="6"
         y="4"
         fill="#ffffff"
         id="rect663" />
      <rect
         width="1"
         height="1"
         x="1"
         y="5"
         fill="#ffffff"
         id="rect665" />
      <rect
         width="1"
         height="1"
         x="2"
         y="5"
         fill="#ffffff"
         id="rect667" />
      <rect
         width="1"
         height="1"
         x="3"
         y="5"
         fill="#ffffff"
         id="rect669" />
      <rect
         width="1"
         height="1"
         x="4"
         y="5"
         fill="#000000"
         id="rect671" />
      <rect
         width="1"
         height="1"
         x="5"
         y="5"
         fill="#000000"
         id="rect673" />
      <rect
         width="1"
         height="1"
         x="6"
         y="5"
         fill="#ffffff"
         id="rect675" />
      <rect
         width="1"
         height="1"
         x="1"
         y="6"
         fill="#ffffff"
         id="rect677" />
      <rect
         width="1"
         height="1"
         x="2"
         y="6"
         fill="#ffffff"
         id="rect679" />
      <rect
         width="1"
         height="1"
         x="3"
         y="6"
         fill="#000000"
         id="rect681" />
      <rect
         width="1"
         height="1"
         x="4"
         y="6"
         fill="#ffffff"
         id="rect683" />
      <rect
         width="1"
         height="1"
         x="5"
         y="6"
         fill="#000000"
         id="rect685" />
      <rect
         width="1"
         height="1"
         x="6"
         y="6"
         fill="#000000"
         id="rect687" />
    </g>
    <text
       id="text738"
       y="40.125664"
       x="28.618513"
       style="font-style:normal;font-variant:normal;font-weight:normal;font-stretch:normal;font-size:2.82223px;line-height:6.61458px;font-family:'Roboto Condensed';-inkscape-font-specification:'Roboto Condensed, ';letter-spacing:0px;word-spacing:0px;fill:#000000;fill-opacity:1;stroke:none;stroke-width:0.264583px;stroke-linecap:butt;stroke-linejoin:miter;stroke-opacity:1"
       xml:space="preserve"><tspan
         style="stroke-width:0.264583px"
         y="40.125664"
         x="28.618513"
         id="tspan736"
         sodipodi:role="line">30</tspan></text>
    <text
       xml:space="preserve"
       style="font-style:normal;font-variant:normal;font-weight:normal;font-stretch:normal;font-size:2.82223px;line-height:6.61458px;font-family:'Roboto Condensed';-inkscape-font-specification:'Roboto Condensed, ';letter-spacing:0px;word-spacing:0px;fill:#000000;fill-opacity:1;stroke:none;stroke-width:0.264583px;stroke-linecap:butt;stroke-linejoin:miter;stroke-opacity:1"
       x="54.980797"
       y="40.125664"
       id="text742"><tspan
         sodipodi:role="line"
         id="tspan740"
         x="54.980797"
         y="40.125664"
         style="stroke-width:0.264583px">31</tspan></text>
    <text
       id="text742-9"
       y="40.125664"
       x="81.343079"
       style="font-style:normal;font-variant:normal;font-weight:normal;font-stretch:normal;font-size:2.82223px;line-height:6.61458px;font-family:'Roboto Condensed';-inkscape-font-specification:'Roboto Condensed, ';letter-spacing:0px;word-spacing:0px;fill:#000000;fill-opacity:1;stroke:none;stroke-width:0.264583px;stroke-linecap:butt;stroke-linejoin:miter;stroke-opacity:1"
       xml:space="preserve"><tspan
         style="stroke-width:0.264583px"
         y="40.125664"
         x="81.343079"
         id="tspan740-3"
         sodipodi:role="line">32</tspan></text>
    <text
       id="text742-97"
       y="40.125664"
       x="118.61852"
       style="font-style:normal;font-variant:normal;font-weight:normal;font-stretch:normal;font-size:2.82223px;line-height:6.61458px;font-family:'Roboto Condensed';-inkscape-font-specification:'Roboto Condensed, ';letter-spacing:0px;word-spacing:0px;fill:#000000;fill-opacity:1;stroke:none;stroke-width:0.264583px;stroke-linecap:butt;stroke-linejoin:miter;stroke-opacity:1"
       xml:space="preserve"><tspan
         style="stroke-width:0.264583px"
         y="40.125664"
         x="118.61852"
         id="tspan740-31"
         sodipodi:role="line">33</tspan></text>
    <text
       id="text742-7"
       y="40.125664"
       x="148.41202"
       style="font-style:normal;font-variant:normal;font-weight:normal;font-stretch:normal;font-size:2.82223px;line-height:6.61458px;font-family:'Roboto Condensed';-inkscape-font-specification:'Roboto Condensed, ';letter-spacing:0px;word-spacing:0px;fill:#000000;fill-opacity:1;stroke:none;stroke-width:0.264583px;stroke-linecap:butt;stroke-linejoin:miter;stroke-opacity:1"
       xml:space="preserve"><tspan
         style="stroke-width:0.264583px"
         y="40.125664"
         x="148.41202"
         id="tspan740-8"
         sodipodi:role="line">34</tspan></text>
    <text
       id="text742-90"
       y="40.125664"
       x="178.20554"
       style="font-style:normal;font-variant:normal;font-weight:normal;font-stretch:normal;font-size:2.82223px;line-height:6.61458px;font-family:'Roboto Condensed';-inkscape-font-specification:'Roboto Condensed, ';letter-spacing:0px;word-spacing:0px;fill:#000000;fill-opacity:1;stroke:none;stroke-width:0.264583px;stroke-linecap:butt;stroke-linejoin:miter;stroke-opacity:1"
       xml:space="preserve"><tspan
         style="stroke-width:0.264583px"
         y="40.125664"
         x="178.20554"
         id="tspan740-81"
         sodipodi:role="line">35</tspan></text>
    <text
       style="fill:black;stroke:none;stroke-opacity:1;stroke-width:0.26458333px;stroke-linejoin:miter;stroke-linecap:butt;fill-opacity:1;font-family:'Roboto Condensed';font-style:normal;font-weight:normal;font-size:2.82222222px;line-height:6.61458333px;letter-spacing:0px;word-spacing:0px;-inkscape-font-specification:'Roboto Condensed, ';font-stretch:normal;font-variant:normal;white-space:pre;shape-inside:url(#rect792);"
       id="text790"
       xml:space="preserve" />
  </g>
</svg>
