<?xml version="1.0" encoding="utf-8"?>
<!-- Generator: Adobe Illustrator 16.0.0, SVG Export Plug-In . SVG Version: 6.00 Build 0)  -->
<!DOCTYPE svg PUBLIC "-//W3C//DTD SVG 1.1//EN" "http://www.w3.org/Graphics/SVG/1.1/DTD/svg11.dtd">
<svg version="1.1" id="Vrstva_1" xmlns="http://www.w3.org/2000/svg" xmlns:xlink="http://www.w3.org/1999/xlink" x="0px" y="0px"
	 width="24px" height="24px" viewBox="0 0 24 24" enable-background="new 0 0 24 24" xml:space="preserve">
<path fill="#FFFFFF" d="M18.857,8h-1.144V5.714C17.714,2.56,15.154,0,12,0C8.846,0,6.286,2.56,6.286,5.714V8H5.143
	c-1.257,0-2.286,1.028-2.286,2.286v11.428C2.857,22.971,3.886,24,5.143,24h13.714c1.257,0,2.285-1.029,2.285-2.286V10.286
	C21.143,9.028,20.114,8,18.857,8z M12,18.286c-1.257,0-2.286-1.029-2.286-2.286s1.028-2.286,2.286-2.286
	c1.257,0,2.286,1.029,2.286,2.286S13.257,18.286,12,18.286z M15.542,8H8.457V5.714c0-1.954,1.589-3.543,3.543-3.543
	s3.542,1.589,3.542,3.543V8z"/>
</svg>
