<?xml version="1.0" encoding="utf-8"?>
<!-- Generator: Adobe Illustrator 16.0.0, SVG Export Plug-In . SVG Version: 6.00 Build 0)  -->
<!DOCTYPE svg PUBLIC "-//W3C//DTD SVG 1.1//EN" "http://www.w3.org/Graphics/SVG/1.1/DTD/svg11.dtd">
<svg version="1.1" id="Vrstva_1" xmlns="http://www.w3.org/2000/svg" xmlns:xlink="http://www.w3.org/1999/xlink" x="0px" y="0px"
	 width="250px" height="119px" viewBox="0 0 250 119" enable-background="new 0 0 250 119" xml:space="preserve">
<g>
	<linearGradient id="SVGID_1_" gradientUnits="userSpaceOnUse" x1="-7.1187" y1="30.2441" x2="167.9373" y2="131.3034">
		<stop  offset="0.2" style="stop-color:#0074C5"/>
		<stop  offset="0.8" style="stop-color:#00BEB4"/>
	</linearGradient>
	<path fill="url(#SVGID_1_)" d="M23.616,0.117L0,17.913C10.775,30.75,25.584,49.458,37.414,68.39
		C48.452,86.056,57.55,104.995,63.704,119h32.08c-5.972-14.622-17.722-41.25-33.342-66.25C50.026,32.884,34.914,13.642,23.616,0.117
		z"/>
	<linearGradient id="SVGID_2_" gradientUnits="userSpaceOnUse" x1="5.2603" y1="8.7803" x2="180.3188" y2="109.841">
		<stop  offset="0.2" style="stop-color:#0074C5"/>
		<stop  offset="0.8" style="stop-color:#00BEB4"/>
	</linearGradient>
	<path fill="url(#SVGID_2_)" d="M98.109,30.462C91.562,19.982,84.334,9.689,77.229,0.17L53.656,17.932
		C60.283,26.816,67,36.373,73.08,46.104C91.014,74.805,103.985,105.56,109.298,119h31.538l-1.152-3.17
		C139.018,113.994,123.044,70.371,98.109,30.462z"/>
	<linearGradient id="SVGID_3_" gradientUnits="userSpaceOnUse" x1="29.5361" y1="-33.2813" x2="204.5982" y2="67.7815">
		<stop  offset="0.2" style="stop-color:#0074C5"/>
		<stop  offset="0.8" style="stop-color:#00BEB4"/>
	</linearGradient>
	<path fill="url(#SVGID_3_)" d="M226.387,0.121c-11.275,13.509-26.275,32.629-38.611,52.374
		c-15.715,25.149-27.51,51.939-33.445,66.505h32.07c6.154-14.029,15.299-33.096,26.404-50.867
		C224.553,49.329,239.244,30.742,250,17.914L226.387,0.121z"/>
	<linearGradient id="SVGID_4_" gradientUnits="userSpaceOnUse" x1="25.6372" y1="-26.5049" x2="200.689" y2="74.552">
		<stop  offset="0.2" style="stop-color:#0074C5"/>
		<stop  offset="0.8" style="stop-color:#00BEB4"/>
	</linearGradient>
	<path fill="url(#SVGID_4_)" d="M172.816,0.146c-7.053,9.454-14.213,19.666-20.709,30.06c-7.623,12.203-14.402,24.746-20.172,36.343
		c7.123,14.697,12.527,27.521,15.838,35.772c6.766-15.445,16.857-36.458,29.363-56.475c6.027-9.645,12.68-19.119,19.252-27.938
		L172.816,0.146z"/>
	<linearGradient id="SVGID_5_" gradientUnits="userSpaceOnUse" x1="27.0088" y1="-28.8809" x2="202.0564" y2="72.1735">
		<stop  offset="0.2" style="stop-color:#0074C5"/>
		<stop  offset="0.8" style="stop-color:#00BEB4"/>
	</linearGradient>
	<path fill="url(#SVGID_5_)" d="M104.715,17.916c1.375,2.098,2.736,4.203,4.061,6.32c5.943,9.512,11.39,19.236,16.266,28.592
		c4.911-9.434,10.401-19.248,16.399-28.848c1.271-2.037,2.596-4.056,3.916-6.073L125.044,2.6L104.715,17.916z"/>
</g>
</svg>
