<?xml version="1.0" encoding="utf-8"?>
<!-- Generator: Adobe Illustrator 16.0.0, SVG Export Plug-In . SVG Version: 6.00 Build 0)  -->
<!DOCTYPE svg PUBLIC "-//W3C//DTD SVG 1.1//EN" "http://www.w3.org/Graphics/SVG/1.1/DTD/svg11.dtd">
<svg version="1.1" id="Vrstva_1" xmlns="http://www.w3.org/2000/svg" xmlns:xlink="http://www.w3.org/1999/xlink" x="0px" y="0px"
	 width="250px" height="119px" viewBox="0 0 250 119" enable-background="new 0 0 250 119" xml:space="preserve">
<g>
	<path fill="#FFFFFF" d="M23.616,0.117L0,17.913C10.775,30.75,25.584,49.458,37.414,68.391C48.452,86.057,57.55,104.995,63.704,119
		h32.08c-5.972-14.622-17.722-41.25-33.342-66.25C50.026,32.884,34.914,13.642,23.616,0.117z"/>
	<path fill="#FFFFFF" d="M98.109,30.462C91.562,19.982,84.334,9.689,77.229,0.17L53.656,17.932
		C60.283,26.816,67,36.373,73.08,46.104c17.934,28.701,30.905,59.457,36.218,72.896h31.538l-1.152-3.17
		C139.018,113.994,123.044,70.371,98.109,30.462z"/>
	<path fill="#FFFFFF" d="M226.387,0.121c-11.275,13.509-26.275,32.629-38.611,52.374c-15.715,25.149-27.51,51.938-33.444,66.505
		H186.4c6.154-14.029,15.3-33.096,26.404-50.867C224.553,49.329,239.244,30.742,250,17.914L226.387,0.121z"/>
	<path fill="#FFFFFF" d="M172.816,0.146c-7.053,9.454-14.213,19.666-20.709,30.06c-7.623,12.203-14.402,24.746-20.172,36.343
		c7.123,14.697,12.526,27.521,15.838,35.771c6.766-15.444,16.856-36.457,29.362-56.474c6.027-9.645,12.681-19.119,19.253-27.938
		L172.816,0.146z"/>
	<path fill="#FFFFFF" d="M104.715,17.916c1.375,2.098,2.736,4.203,4.061,6.32c5.943,9.512,11.39,19.236,16.266,28.592
		c4.911-9.434,10.401-19.248,16.399-28.848c1.271-2.037,2.596-4.056,3.916-6.073L125.044,2.6L104.715,17.916z"/>
</g>
</svg>
